<svg width="24" height="24" viewBox="0 0 24 24" xmlns="http://www.w3.org/2000/svg">
<path fill-rule="evenodd" clip-rule="evenodd" d="M2 6.23029C2 5.678 2.44772 5.23029 3 5.23029H21C21.5523 5.23029 22 5.678 22 6.23029C22 6.78257 21.5523 7.23029 21 7.23029H3C2.44772 7.23029 2 6.78257 2 6.23029Z"/>
<path fill-rule="evenodd" clip-rule="evenodd" d="M8.49023 12C8.49023 11.4477 8.93795 11 9.49023 11H21.0002C21.5525 11 22.0002 11.4477 22.0002 12C22.0002 12.5523 21.5525 13 21.0002 13H9.49023C8.93795 13 8.49023 12.5523 8.49023 12Z"/>
<path fill-rule="evenodd" clip-rule="evenodd" d="M2 12C2 11.4477 2.44772 11 3 11H5.99C6.54228 11 6.99 11.4477 6.99 12C6.99 12.5523 6.54228 13 5.99 13H3C2.44772 13 2 12.5523 2 12Z"/>
<path fill-rule="evenodd" clip-rule="evenodd" d="M2 17.7697C2 17.2174 2.44772 16.7697 3 16.7697H21C21.5523 16.7697 22 17.2174 22 17.7697C22 18.322 21.5523 18.7697 21 18.7697H3C2.44772 18.7697 2 18.322 2 17.7697Z"/>
</svg>
