<svg width="22" height="17" viewBox="0 0 22 17" fill="none" xmlns="http://www.w3.org/2000/svg">
<path d="M18.3921 2.2413C16.9682 1.61999 15.4619 1.17841 13.913 0.928223C13.7197 1.2532 13.495 1.69157 13.3387 2.03882C11.6934 1.80496 10.0195 1.80496 8.37424 2.03882C8.2017 1.65936 8.00783 1.28865 7.79344 0.928223C6.24312 1.17882 4.73565 1.62144 3.31101 2.24433C0.47652 6.23924 -0.292082 10.1349 0.092219 13.9749C1.74684 15.14 3.60586 16.0283 5.58642 16.6001C6.03142 16.029 6.42503 15.4245 6.76321 14.7929C6.11997 14.5643 5.49982 14.2828 4.9101 13.9516C5.06534 13.8443 5.21732 13.732 5.36388 13.6165C8.93657 15.1746 12.8176 15.1746 16.3479 13.6165C16.4967 13.732 16.6487 13.8443 16.8017 13.9516C16.2144 14.2817 15.5924 14.5652 14.9454 14.794C15.283 15.4258 15.6766 16.0303 16.1221 16.6011C18.1043 16.0296 19.9646 15.1406 21.6196 13.9739C22.0701 9.52344 20.8499 5.66318 18.3921 2.2413ZM7.24956 11.613C6.17699 11.613 5.29766 10.6796 5.29766 9.54267C5.29766 8.40576 6.15853 7.4703 7.24956 7.4703C8.34058 7.4703 9.21992 8.40373 9.20146 9.54267C9.20255 10.6796 8.34058 11.613 7.24956 11.613ZM14.4623 11.613C13.3897 11.613 12.5104 10.6796 12.5104 9.54267C12.5104 8.40576 13.3712 7.4703 14.4623 7.4703C15.5533 7.4703 16.4326 8.40373 16.4142 9.54267C16.4142 10.6796 15.5533 11.613 14.4623 11.613Z" fill="url(#paint0_linear_1_356)"/>
<defs>
<linearGradient id="paint0_linear_1_356" x1="3.17969" y1="14.3058" x2="13.6983" y2="-0.265804" gradientUnits="userSpaceOnUse">
<stop offset="0.03" stop-color="#A98D58"/>
<stop offset="0.1" stop-color="#B7995F"/>
<stop offset="0.22" stop-color="#DDB771"/>
<stop offset="0.31" stop-color="#FACF7F"/>
<stop offset="0.5" stop-color="#FCE88C"/>
<stop offset="0.63" stop-color="#FDFA96"/>
<stop offset="0.75" stop-color="#F6E18E"/>
<stop offset="1" stop-color="#E6A37B"/>
</linearGradient>
</defs>
</svg>
