<svg width="27" height="21" viewBox="0 0 27 21" fill="none" xmlns="http://www.w3.org/2000/svg">
<path d="M25.6402 3.11557C25.2309 3.28486 24.8101 3.42774 24.3801 3.54374C24.8892 3.00686 25.2773 2.37514 25.5143 1.68385C25.5674 1.5289 25.5123 1.35929 25.3758 1.25795C25.2393 1.15653 25.0498 1.14438 24.8996 1.22739C23.9865 1.73245 23.0013 2.09541 21.9683 2.30766C20.9277 1.35945 19.5144 0.819824 18.0533 0.819824C14.9692 0.819824 12.4601 3.15962 12.4601 6.03558C12.4601 6.26209 12.4755 6.48735 12.5059 6.70947C8.67884 6.39612 5.12091 4.64196 2.67768 1.84711C2.5906 1.7475 2.45647 1.69381 2.31913 1.70407C2.18172 1.71411 2.05825 1.78637 1.98883 1.89743C1.49329 2.69037 1.23132 3.59727 1.23132 4.52001C1.23132 5.77678 1.71249 6.96921 2.56245 7.90096C2.30401 7.81749 2.05321 7.71317 1.81385 7.58925C1.68534 7.52256 1.52851 7.52357 1.40084 7.59184C1.27309 7.66011 1.193 7.78567 1.18964 7.92291C1.18905 7.94603 1.18905 7.96915 1.18905 7.99258C1.18905 9.86854 2.27173 11.5575 3.92703 12.478C3.78482 12.4648 3.6427 12.4456 3.5015 12.4204C3.35593 12.3945 3.20624 12.442 3.10808 12.5456C3.00974 12.649 2.97722 12.7933 3.02252 12.9249C3.63522 14.7088 5.21268 16.0209 7.1197 16.4209C5.53803 17.3448 3.72927 17.8287 1.83049 17.8287C1.43429 17.8287 1.03583 17.807 0.645855 17.7639C0.452128 17.7425 0.266889 17.8491 0.200913 18.0209C0.134937 18.1928 0.204863 18.3844 0.369678 18.483C2.80896 19.9415 5.62947 20.7124 8.52613 20.7124C14.2206 20.7124 17.7829 18.2083 19.7685 16.1075C22.2445 13.4881 23.6646 10.0209 23.6646 6.59512C23.6646 6.452 23.6622 6.30748 23.6575 6.16342C24.6344 5.47707 25.4754 4.64643 26.1598 3.69172C26.2638 3.54672 26.2525 3.35509 26.1321 3.22161C26.0118 3.08806 25.8114 3.04487 25.6402 3.11557Z" fill="url(#paint0_linear_1_355)"/>
<defs>
<linearGradient id="paint0_linear_1_355" x1="3.99195" y1="17.7991" x2="17.561" y2="0.026992" gradientUnits="userSpaceOnUse">
<stop offset="0.03" stop-color="#A98D58"/>
<stop offset="0.1" stop-color="#B7995F"/>
<stop offset="0.22" stop-color="#DDB771"/>
<stop offset="0.31" stop-color="#FACF7F"/>
<stop offset="0.5" stop-color="#FCE88C"/>
<stop offset="0.63" stop-color="#FDFA96"/>
<stop offset="0.75" stop-color="#F6E18E"/>
<stop offset="1" stop-color="#E6A37B"/>
</linearGradient>
</defs>
</svg>
